<svg width="512" height="512" viewBox="0 0 512 512" fill="none" xmlns="http://www.w3.org/2000/svg">
<g opacity="0.55" filter="url(#filter0_f_28_2)">
<path opacity="0.85" d="M256 299.886C324.673 299.886 380.343 244.215 380.343 175.543C380.343 106.87 324.673 51.2 256 51.2C187.327 51.2 131.657 106.87 131.657 175.543C131.657 244.215 187.327 299.886 256 299.886Z" fill="#FF6A88"/>
<path opacity="0.85" d="M312.905 323.438C381.578 323.438 437.248 267.767 437.248 199.095C437.248 130.422 381.578 74.752 312.905 74.752C244.232 74.752 188.562 130.422 188.562 199.095C188.562 267.767 244.232 323.438 312.905 323.438Z" fill="#FF9A8B"/>
<path opacity="0.85" d="M336.457 380.343C405.13 380.343 460.8 324.673 460.8 256C460.8 187.327 405.13 131.657 336.457 131.657C267.784 131.657 212.114 187.327 212.114 256C212.114 324.673 267.784 380.343 336.457 380.343Z" fill="#FFD66E"/>
<path opacity="0.85" d="M312.905 437.248C381.578 437.248 437.248 381.578 437.248 312.905C437.248 244.232 381.578 188.562 312.905 188.562C244.232 188.562 188.562 244.232 188.562 312.905C188.562 381.578 244.232 437.248 312.905 437.248Z" fill="#9BF6A3"/>
<path opacity="0.85" d="M256 460.8C324.673 460.8 380.343 405.13 380.343 336.457C380.343 267.784 324.673 212.114 256 212.114C187.327 212.114 131.657 267.784 131.657 336.457C131.657 405.13 187.327 460.8 256 460.8Z" fill="#6EE7E7"/>
<path opacity="0.85" d="M199.095 437.248C267.767 437.248 323.438 381.578 323.438 312.905C323.438 244.232 267.767 188.562 199.095 188.562C130.422 188.562 74.752 244.232 74.752 312.905C74.752 381.578 130.422 437.248 199.095 437.248Z" fill="#8AA6FF"/>
<path opacity="0.85" d="M175.543 380.343C244.215 380.343 299.886 324.673 299.886 256C299.886 187.327 244.215 131.657 175.543 131.657C106.87 131.657 51.2 187.327 51.2 256C51.2 324.673 106.87 380.343 175.543 380.343Z" fill="#C894FF"/>
<path opacity="0.85" d="M199.095 323.438C267.767 323.438 323.438 267.767 323.438 199.095C323.438 130.422 267.767 74.752 199.095 74.752C130.422 74.752 74.752 130.422 74.752 199.095C74.752 267.767 130.422 323.438 199.095 323.438Z" fill="#FF6A88"/>
</g>
<path d="M153.6 204.8V138.971H182.857V109.714H226.743L256 168.229L285.257 109.714H329.143V138.971H358.4V204.8H153.6Z" fill="#FAFAFA"/>
<path d="M373.029 175.543H138.971C122.813 175.543 109.714 188.642 109.714 204.8V358.4C109.714 374.558 122.813 387.657 138.971 387.657H373.029C389.187 387.657 402.286 374.558 402.286 358.4V204.8C402.286 188.642 389.187 175.543 373.029 175.543Z" fill="#FAFAFA"/>
<path opacity="0.45" d="M109.714 277.943H292.571" stroke="#0A0A0A" stroke-width="5.12"/>
<path opacity="0.45" d="M376.686 277.943H402.286" stroke="#0A0A0A" stroke-width="5.12"/>
<path d="M358.4 296.229C368.499 296.229 376.686 288.042 376.686 277.943C376.686 267.844 368.499 259.657 358.4 259.657C348.301 259.657 340.114 267.844 340.114 277.943C340.114 288.042 348.301 296.229 358.4 296.229Z" fill="#0A0A0A"/>
<path d="M358.4 285.257C362.44 285.257 365.714 281.983 365.714 277.943C365.714 273.903 362.44 270.629 358.4 270.629C354.36 270.629 351.086 273.903 351.086 277.943C351.086 281.983 354.36 285.257 358.4 285.257Z" fill="#FAFAFA"/>
<defs>
<filter id="filter0_f_28_2" x="-51.2001" y="-51.2001" width="614.4" height="614.4" filterUnits="userSpaceOnUse" color-interpolation-filters="sRGB">
<feFlood flood-opacity="0" result="BackgroundImageFix"/>
<feBlend mode="normal" in="SourceGraphic" in2="BackgroundImageFix" result="shape"/>
<feGaussianBlur stdDeviation="51.2" result="effect1_foregroundBlur_28_2"/>
</filter>
</defs>
</svg>
