<svg width="512" height="512" viewBox="0 0 512 512" fill="none" xmlns="http://www.w3.org/2000/svg">
<g opacity="0.55" filter="url(#filter0_f_29_4)">
<path opacity="0.85" d="M256 299.886C324.673 299.886 380.343 244.215 380.343 175.543C380.343 106.87 324.673 51.2 256 51.2C187.327 51.2 131.657 106.87 131.657 175.543C131.657 244.215 187.327 299.886 256 299.886Z" fill="#FF6A88"/>
<path opacity="0.85" d="M312.905 323.438C381.578 323.438 437.248 267.767 437.248 199.095C437.248 130.422 381.578 74.752 312.905 74.752C244.232 74.752 188.562 130.422 188.562 199.095C188.562 267.767 244.232 323.438 312.905 323.438Z" fill="#FF9A8B"/>
<path opacity="0.85" d="M336.457 380.343C405.13 380.343 460.8 324.673 460.8 256C460.8 187.327 405.13 131.657 336.457 131.657C267.784 131.657 212.114 187.327 212.114 256C212.114 324.673 267.784 380.343 336.457 380.343Z" fill="#FFD66E"/>
<path opacity="0.85" d="M312.905 437.248C381.578 437.248 437.248 381.578 437.248 312.905C437.248 244.232 381.578 188.562 312.905 188.562C244.232 188.562 188.562 244.232 188.562 312.905C188.562 381.578 244.232 437.248 312.905 437.248Z" fill="#9BF6A3"/>
<path opacity="0.85" d="M256 460.8C324.673 460.8 380.343 405.13 380.343 336.457C380.343 267.784 324.673 212.114 256 212.114C187.327 212.114 131.657 267.784 131.657 336.457C131.657 405.13 187.327 460.8 256 460.8Z" fill="#6EE7E7"/>
<path opacity="0.85" d="M199.095 437.248C267.767 437.248 323.438 381.578 323.438 312.905C323.438 244.232 267.767 188.562 199.095 188.562C130.422 188.562 74.752 244.232 74.752 312.905C74.752 381.578 130.422 437.248 199.095 437.248Z" fill="#8AA6FF"/>
<path opacity="0.85" d="M175.543 380.343C244.215 380.343 299.886 324.673 299.886 256C299.886 187.327 244.215 131.657 175.543 131.657C106.87 131.657 51.2 187.327 51.2 256C51.2 324.673 106.87 380.343 175.543 380.343Z" fill="#C894FF"/>
<path opacity="0.85" d="M199.095 323.438C267.767 323.438 323.438 267.767 323.438 199.095C323.438 130.422 267.767 74.752 199.095 74.752C130.422 74.752 74.752 130.422 74.752 199.095C74.752 267.767 130.422 323.438 199.095 323.438Z" fill="#FF6A88"/>
</g>
<path d="M166.261 217.899V160.507H191.768V135H230.029L255.537 186.015L281.044 135H319.305V160.507H344.813V217.899H166.261Z" fill="#0A0A0A"/>
<path d="M357.566 192.392H153.507C139.42 192.392 128 203.812 128 217.899V351.813C128 365.9 139.42 377.32 153.507 377.32H357.566C371.654 377.32 383.074 365.9 383.074 351.813V217.899C383.074 203.812 371.654 192.392 357.566 192.392Z" fill="#0A0A0A"/>
<path opacity="0.45" d="M128 281.667H287.421" stroke="white" stroke-width="7.168"/>
<path opacity="0.45" d="M360.755 281.667H383.074" stroke="white" stroke-width="7.168"/>
<path d="M344.813 297.61C353.617 297.61 360.755 290.472 360.755 281.667C360.755 272.863 353.617 265.725 344.813 265.725C336.008 265.725 328.87 272.863 328.87 281.667C328.87 290.472 336.008 297.61 344.813 297.61Z" fill="white"/>
<path d="M344.813 288.044C348.334 288.044 351.189 285.189 351.189 281.667C351.189 278.146 348.334 275.291 344.813 275.291C341.291 275.291 338.436 278.146 338.436 281.667C338.436 285.189 341.291 288.044 344.813 288.044Z" fill="#0A0A0A"/>
<defs>
<filter id="filter0_f_29_4" x="-51.2001" y="-51.2001" width="614.4" height="614.4" filterUnits="userSpaceOnUse" color-interpolation-filters="sRGB">
<feFlood flood-opacity="0" result="BackgroundImageFix"/>
<feBlend mode="normal" in="SourceGraphic" in2="BackgroundImageFix" result="shape"/>
<feGaussianBlur stdDeviation="51.2" result="effect1_foregroundBlur_29_4"/>
</filter>
</defs>
</svg>
